<?xml version="1.0" encoding="UTF-8" standalone="no"?>
<!DOCTYPE svg PUBLIC "-//W3C//DTD SVG 1.1//EN" "http://www.w3.org/Graphics/SVG/1.1/DTD/svg11.dtd">
<svg width="100%" height="100%" viewBox="0 0 1601 508" version="1.1" xmlns="http://www.w3.org/2000/svg" xmlns:xlink="http://www.w3.org/1999/xlink" xml:space="preserve" xmlns:serif="http://www.serif.com/" style="fill-rule:evenodd;clip-rule:evenodd;stroke-linejoin:round;stroke-miterlimit:2;">
    <g transform="matrix(0.534804,0,0,0.534804,-241.420813,-19.926357)">
        <path d="M527.789,944.469C479.134,856.769 451.42,755.874 451.42,648.557C451.42,311.172 725.333,37.259 1062.717,37.259C1351.868,37.259 1594.398,238.452 1657.834,508.363C1649.889,502.494 1641.207,497.204 1631.775,492.53C1563.292,242.541 1334.315,58.61 1062.717,58.61C737.117,58.61 472.77,322.956 472.77,648.557C472.77,756.367 501.752,857.463 552.344,944.469L527.789,944.469ZM604.321,944.469C549.133,859.203 517.081,757.593 517.081,648.557C517.081,347.412 761.572,102.92 1062.717,102.92C1303.144,102.92 1507.46,258.761 1580.076,474.852C1572.379,473.182 1564.361,471.796 1556.018,470.706C1483.114,268.772 1289.657,124.271 1062.717,124.271C773.356,124.271 538.432,359.196 538.432,648.557C538.432,758.308 572.228,860.229 629.972,944.469L604.321,944.469ZM684.932,944.469C620.941,862.915 582.768,760.159 582.768,648.557C582.768,383.665 797.826,168.607 1062.717,168.607C1263.657,168.607 1435.922,292.36 1507.387,467.742C1499.636,467.75 1491.987,467.906 1484.439,468.21C1414.33,304.653 1251.812,189.958 1062.717,189.958C809.61,189.958 604.119,395.449 604.119,648.557C604.119,761.29 644.884,864.577 712.465,944.469L684.932,944.469ZM772.937,944.469C696.145,869.257 648.466,764.431 648.466,648.557C648.466,419.925 834.086,234.306 1062.717,234.306C1228.272,234.306 1371.274,331.634 1437.578,472.144C1422.445,474.065 1407.762,476.433 1393.531,479.242C1331.908,359.185 1206.839,276.96 1062.717,276.96C857.627,276.96 691.12,443.467 691.12,648.557C691.12,769.244 748.779,876.571 838.03,944.469L772.937,944.469Z" style="fill:rgb(35,57,116);"/>
    </g>
    <g transform="matrix(6.999435,0,0,6.202088,-4300.590007,-2223.833661)">
        <path d="M647.266,436.785L647.266,399.785L653.811,399.785L653.811,436.785L647.266,436.785ZM665.173,425.973L662.7,436.785L656.315,436.785L665.25,399.785L674.961,399.785L683.896,436.785L677.436,436.785L674.943,425.973L665.173,425.973ZM673.494,419.689L670.038,404.701L666.61,419.689L673.494,419.689ZM686.387,436.785L686.387,400.401C687.73,400.077 689.132,399.818 690.591,399.623C692.05,399.427 693.57,399.33 695.148,399.33C699.588,399.33 702.925,400.403 705.16,402.55C707.394,404.697 708.512,408.082 708.512,412.703C708.512,417.056 707.412,420.362 705.212,422.622C703.013,424.881 699.794,426.011 695.555,426.011C695.062,426.011 694.618,426 694.221,425.979C693.825,425.957 693.395,425.931 692.932,425.899L692.932,436.785L686.387,436.785ZM695.657,420.009C697.844,420.009 699.47,419.447 700.532,418.324C701.595,417.201 702.127,415.36 702.127,412.803C702.127,410.176 701.605,408.274 700.562,407.098C699.519,405.921 697.911,405.332 695.739,405.332C695.177,405.332 694.679,405.351 694.244,405.389C693.81,405.426 693.372,405.494 692.932,405.592L692.932,419.829C693.368,419.894 693.803,419.94 694.236,419.968C694.67,419.995 695.143,420.009 695.657,420.009Z" style="fill:rgb(38,71,150);"/>
    </g>
    <g transform="matrix(1.989009,0,0,1.989009,-2634.47116,-2950.752845)">
        <path d="M1687.089,1714.977L1682.979,1727.442L1678.906,1727.442L1691.811,1689.006L1697.57,1689.006L1710.474,1727.442L1706.336,1727.442L1702.219,1714.977L1687.089,1714.977ZM1701.058,1711.464L1694.648,1692.054L1688.248,1711.464L1701.058,1711.464ZM1716.172,1702.601L1711.12,1702.601L1711.12,1699.26L1716.172,1699.26L1716.832,1689.006L1720.196,1689.006L1720.196,1699.26L1728.28,1699.26L1728.28,1702.601L1720.196,1702.601L1720.196,1718.328C1720.196,1720.591 1720.637,1722.168 1721.517,1723.061C1722.398,1723.953 1723.738,1724.4 1725.537,1724.4C1726.02,1724.4 1726.519,1724.365 1727.033,1724.295C1727.547,1724.226 1728.098,1724.128 1728.685,1724.002L1728.685,1727.46C1728.073,1727.601 1727.423,1727.714 1726.735,1727.799C1726.047,1727.884 1725.368,1727.926 1724.696,1727.926C1722.018,1727.926 1719.928,1727.223 1718.426,1725.815C1716.924,1724.408 1716.172,1722.112 1716.172,1718.927L1716.172,1702.601ZM1752.628,1706.068C1752.701,1706.731 1752.737,1707.447 1752.737,1708.215L1752.737,1727.442L1748.77,1727.442L1748.77,1708.509C1748.77,1706.217 1748.324,1704.636 1747.432,1703.766C1746.539,1702.897 1745.381,1702.462 1743.957,1702.462C1743.265,1702.462 1742.523,1702.587 1741.731,1702.838C1740.94,1703.088 1740.171,1703.496 1739.425,1704.059C1738.68,1704.623 1738.029,1705.379 1737.473,1706.327L1737.473,1727.442L1733.449,1727.442L1733.449,1699.26L1736.844,1699.26L1737.147,1702.451L1737.415,1702.451C1738.446,1701.222 1739.618,1700.311 1740.932,1699.72C1742.246,1699.127 1743.643,1698.831 1745.125,1698.831C1746.565,1698.831 1747.86,1699.128 1749.012,1699.721C1750.163,1700.314 1751.072,1701.296 1751.738,1702.666C1751.762,1702.715 1751.785,1702.764 1751.808,1702.815C1752.902,1701.462 1754.108,1700.489 1755.426,1699.894C1756.994,1699.185 1758.514,1698.831 1759.987,1698.831C1761.483,1698.831 1762.831,1699.131 1764.032,1699.73C1765.232,1700.328 1766.181,1701.322 1766.879,1702.711C1767.576,1704.1 1767.925,1705.978 1767.925,1708.346L1767.925,1727.442L1763.904,1727.442L1763.904,1708.509C1763.904,1706.217 1763.438,1704.636 1762.507,1703.766C1761.576,1702.897 1760.397,1702.462 1758.971,1702.462C1758.272,1702.462 1757.505,1702.594 1756.67,1702.857C1755.835,1703.121 1755.021,1703.571 1754.229,1704.209C1753.631,1704.69 1753.097,1705.31 1752.628,1706.068ZM1785.438,1727.936C1783.169,1727.936 1781.195,1727.441 1779.516,1726.45C1777.837,1725.458 1776.538,1723.894 1775.619,1721.757C1774.699,1719.62 1774.24,1716.832 1774.24,1713.391C1774.24,1709.947 1774.695,1707.155 1775.605,1705.016C1776.516,1702.876 1777.809,1701.311 1779.484,1700.319C1781.159,1699.327 1783.144,1698.831 1785.438,1698.831C1787.72,1698.831 1789.7,1699.328 1791.378,1700.322C1793.056,1701.315 1794.352,1702.88 1795.265,1705.017C1796.18,1707.153 1796.637,1709.938 1796.637,1713.371C1796.637,1716.805 1796.179,1719.594 1795.263,1721.736C1794.347,1723.878 1793.051,1725.447 1791.375,1726.443C1789.699,1727.438 1787.72,1727.936 1785.438,1727.936ZM1785.438,1724.657C1786.887,1724.657 1788.141,1724.323 1789.198,1723.654C1790.255,1722.985 1791.071,1721.836 1791.645,1720.206C1792.219,1718.576 1792.506,1716.327 1792.506,1713.459C1792.506,1710.532 1792.218,1708.245 1791.642,1706.599C1791.067,1704.952 1790.25,1703.793 1789.19,1703.12C1788.131,1702.447 1786.881,1702.111 1785.438,1702.111C1783.996,1702.111 1782.745,1702.443 1781.686,1703.108C1780.627,1703.773 1779.809,1704.919 1779.234,1706.548C1778.658,1708.177 1778.37,1710.429 1778.37,1713.304C1778.37,1716.224 1778.657,1718.509 1779.231,1720.158C1779.805,1721.807 1780.621,1722.969 1781.678,1723.644C1782.736,1724.32 1783.989,1724.657 1785.438,1724.657ZM1809.27,1727.936C1807.997,1727.936 1806.77,1727.845 1805.588,1727.662C1804.406,1727.479 1803.263,1727.206 1802.158,1726.844L1802.158,1723.506C1803.416,1723.896 1804.62,1724.183 1805.77,1724.366C1806.92,1724.549 1808.079,1724.64 1809.245,1724.64C1811.457,1724.64 1813.093,1724.225 1814.153,1723.393C1815.213,1722.562 1815.743,1721.391 1815.743,1719.882C1815.743,1718.555 1815.416,1717.55 1814.761,1716.866C1814.106,1716.182 1813.073,1715.669 1811.662,1715.326L1808.334,1714.564C1805.918,1713.976 1804.19,1713.052 1803.149,1711.791C1802.109,1710.53 1801.589,1708.909 1801.589,1706.927C1801.589,1704.562 1802.468,1702.622 1804.227,1701.106C1805.986,1699.589 1808.605,1698.831 1812.085,1698.831C1813.214,1698.831 1814.277,1698.892 1815.272,1699.015C1816.268,1699.137 1817.224,1699.317 1818.141,1699.557L1818.141,1702.895C1817.105,1702.613 1816.119,1702.415 1815.18,1702.3C1814.242,1702.185 1813.25,1702.127 1812.202,1702.127C1810.567,1702.127 1809.253,1702.339 1808.258,1702.761C1807.263,1703.183 1806.542,1703.75 1806.094,1704.463C1805.647,1705.176 1805.423,1705.967 1805.423,1706.836C1805.423,1707.994 1805.73,1708.927 1806.343,1709.636C1806.956,1710.345 1807.97,1710.876 1809.383,1711.23L1812.711,1711.991C1815.202,1712.584 1816.969,1713.506 1818.012,1714.758C1819.056,1716.009 1819.577,1717.661 1819.577,1719.711C1819.577,1722.261 1818.687,1724.269 1816.905,1725.736C1815.124,1727.203 1812.578,1727.936 1809.27,1727.936ZM1825.541,1738.869L1825.541,1699.26L1828.978,1699.26L1829.275,1702.267L1829.533,1702.267C1830.252,1701.274 1831.215,1700.453 1832.421,1699.804C1833.628,1699.156 1835.017,1698.831 1836.589,1698.831C1838.448,1698.831 1840.159,1699.274 1841.723,1700.159C1843.286,1701.043 1844.539,1702.507 1845.481,1704.549C1846.423,1706.592 1846.895,1709.354 1846.895,1712.835C1846.895,1716.253 1846.385,1719.077 1845.367,1721.308C1844.349,1723.539 1842.836,1725.199 1840.83,1726.29C1838.824,1727.381 1836.347,1727.926 1833.399,1727.926C1832.764,1727.926 1832.111,1727.898 1831.44,1727.843C1830.769,1727.787 1830.144,1727.724 1829.564,1727.653L1829.564,1738.869L1825.541,1738.869ZM1833.551,1724.617C1836.564,1724.617 1838.853,1723.746 1840.417,1722.003C1841.982,1720.261 1842.764,1717.33 1842.764,1713.21C1842.764,1710.312 1842.454,1708.079 1841.833,1706.51C1841.213,1704.941 1840.366,1703.851 1839.291,1703.242C1838.216,1702.633 1837.003,1702.328 1835.652,1702.328C1834.508,1702.328 1833.382,1702.6 1832.273,1703.145C1831.165,1703.69 1830.262,1704.535 1829.564,1705.681L1829.564,1724.22C1830.097,1724.334 1830.733,1724.429 1831.471,1724.504C1832.209,1724.579 1832.903,1724.617 1833.551,1724.617ZM1853.407,1727.442L1853.407,1685.474L1857.431,1685.474L1857.431,1702.399L1857.67,1702.399C1858.706,1701.211 1859.907,1700.319 1861.272,1699.724C1862.638,1699.129 1864.11,1698.831 1865.689,1698.831C1867.235,1698.831 1868.624,1699.131 1869.857,1699.73C1871.09,1700.328 1872.063,1701.32 1872.776,1702.706C1873.489,1704.092 1873.846,1705.965 1873.846,1708.326L1873.846,1727.442L1869.822,1727.442L1869.822,1708.502C1869.822,1706.219 1869.336,1704.648 1868.365,1703.789C1867.393,1702.93 1866.108,1702.5 1864.508,1702.5C1863.74,1702.5 1862.924,1702.619 1862.061,1702.857C1861.198,1703.095 1860.36,1703.487 1859.548,1704.033C1858.735,1704.579 1858.03,1705.308 1857.431,1706.221L1857.431,1727.442L1853.407,1727.442ZM1884.286,1714.716C1884.341,1717.016 1884.658,1718.866 1885.237,1720.265C1885.877,1721.812 1886.851,1722.919 1888.159,1723.586C1889.468,1724.253 1891.133,1724.587 1893.155,1724.587C1894.131,1724.587 1895.149,1724.496 1896.211,1724.313C1897.272,1724.131 1898.422,1723.859 1899.661,1723.499L1899.661,1726.867C1898.392,1727.246 1897.194,1727.519 1896.069,1727.686C1894.944,1727.853 1893.822,1727.936 1892.703,1727.936C1889.936,1727.936 1887.623,1727.449 1885.765,1726.474C1883.907,1725.499 1882.51,1723.941 1881.575,1721.801C1880.64,1719.661 1880.173,1716.837 1880.173,1713.328C1880.173,1709.95 1880.614,1707.192 1881.496,1705.054C1882.379,1702.916 1883.62,1701.345 1885.221,1700.34C1886.822,1699.334 1888.703,1698.831 1890.866,1698.831C1892.995,1698.831 1894.815,1699.333 1896.327,1700.338C1897.838,1701.342 1898.995,1702.917 1899.799,1705.063C1900.602,1707.208 1901.004,1709.992 1901.004,1713.415L1901.004,1714.716L1884.286,1714.716ZM1884.282,1711.898L1897.113,1711.898C1897.079,1709.45 1896.827,1707.506 1896.359,1706.064C1895.854,1704.509 1895.132,1703.41 1894.195,1702.767C1893.257,1702.124 1892.139,1701.803 1890.842,1701.803C1889.532,1701.803 1888.384,1702.123 1887.4,1702.764C1886.416,1703.404 1885.649,1704.502 1885.1,1706.057C1884.592,1707.499 1884.319,1709.446 1884.282,1711.898ZM1907.244,1727.442L1907.244,1699.26L1910.615,1699.26L1910.941,1703.065L1911.209,1703.065C1912.104,1701.69 1913.232,1700.666 1914.591,1699.994C1915.951,1699.322 1917.38,1698.985 1918.88,1698.985C1919.257,1698.985 1919.604,1698.999 1919.921,1699.026C1920.239,1699.054 1920.528,1699.093 1920.789,1699.145L1920.789,1702.931C1920.441,1702.869 1920.098,1702.831 1919.762,1702.818C1919.425,1702.804 1919.063,1702.797 1918.674,1702.797C1917.768,1702.797 1916.847,1702.948 1915.913,1703.251C1914.978,1703.553 1914.106,1704.008 1913.295,1704.614C1912.484,1705.221 1911.808,1705.971 1911.267,1706.865L1911.267,1727.442L1907.244,1727.442ZM1925.631,1727.442L1925.631,1699.26L1929.665,1699.26L1929.665,1727.442L1925.631,1727.442ZM1927.654,1693.132C1926.744,1693.132 1926.045,1692.9 1925.558,1692.435C1925.07,1691.97 1924.826,1691.338 1924.826,1690.539C1924.826,1689.723 1925.07,1689.08 1925.558,1688.611C1926.045,1688.142 1926.744,1687.907 1927.654,1687.907C1928.569,1687.907 1929.268,1688.142 1929.753,1688.611C1930.239,1689.08 1930.481,1689.723 1930.481,1690.539C1930.481,1691.338 1930.239,1691.97 1929.753,1692.435C1929.268,1692.9 1928.569,1693.132 1927.654,1693.132ZM1947.931,1727.936C1945.44,1727.936 1943.326,1727.443 1941.588,1726.455C1939.85,1725.468 1938.529,1723.906 1937.625,1721.77C1936.721,1719.634 1936.269,1716.833 1936.269,1713.368C1936.269,1709.882 1936.764,1707.073 1937.753,1704.939C1938.742,1702.805 1940.187,1701.254 1942.087,1700.285C1943.987,1699.316 1946.299,1698.831 1949.022,1698.831C1949.889,1698.831 1950.77,1698.882 1951.666,1698.982C1952.562,1699.083 1953.425,1699.243 1954.254,1699.463L1954.254,1702.922C1953.413,1702.7 1952.589,1702.542 1951.781,1702.447C1950.973,1702.352 1950.227,1702.305 1949.542,1702.305C1947.491,1702.305 1945.794,1702.645 1944.451,1703.325C1943.109,1704.005 1942.108,1705.145 1941.45,1706.744C1940.792,1708.342 1940.463,1710.515 1940.463,1713.261C1940.463,1716.071 1940.769,1718.293 1941.38,1719.927C1941.992,1721.56 1942.902,1722.724 1944.111,1723.42C1945.32,1724.115 1946.815,1724.463 1948.597,1724.463C1949.414,1724.463 1950.28,1724.377 1951.197,1724.205C1952.113,1724.033 1953.132,1723.761 1954.254,1723.388L1954.254,1726.847C1953.211,1727.216 1952.16,1727.49 1951.1,1727.669C1950.04,1727.847 1948.983,1727.936 1947.931,1727.936ZM1972.473,1727.442L1972.473,1689.505C1973.916,1689.229 1975.392,1689.01 1976.904,1688.847C1978.415,1688.684 1979.993,1688.602 1981.639,1688.602C1986.528,1688.602 1990.217,1689.659 1992.706,1691.772C1995.196,1693.885 1996.441,1697.204 1996.441,1701.73C1996.441,1705.995 1995.19,1709.244 1992.689,1711.478C1990.187,1713.712 1986.319,1714.829 1981.082,1714.829C1980.279,1714.829 1979.518,1714.812 1978.8,1714.777C1978.081,1714.742 1977.33,1714.691 1976.547,1714.624L1976.547,1727.442L1972.473,1727.442ZM1981.196,1711.436C1985.075,1711.436 1987.909,1710.652 1989.697,1709.085C1991.486,1707.518 1992.38,1705.096 1992.38,1701.818C1992.38,1698.377 1991.521,1695.88 1989.803,1694.326C1988.085,1692.772 1985.453,1691.995 1981.906,1691.995C1980.911,1691.995 1979.98,1692.029 1979.111,1692.097C1978.243,1692.165 1977.389,1692.271 1976.547,1692.415L1976.547,1711.161C1977.305,1711.262 1978.061,1711.333 1978.814,1711.375C1979.567,1711.415 1980.361,1711.436 1981.196,1711.436ZM2003.023,1727.442L2003.023,1685.474L2007.046,1685.474L2007.046,1702.399L2007.286,1702.399C2008.322,1701.211 2009.522,1700.319 2010.888,1699.724C2012.254,1699.129 2013.726,1698.831 2015.305,1698.831C2016.85,1698.831 2018.24,1699.131 2019.473,1699.73C2020.706,1700.328 2021.679,1701.32 2022.392,1702.706C2023.105,1704.092 2023.461,1705.965 2023.461,1708.326L2023.461,1727.442L2019.438,1727.442L2019.438,1708.502C2019.438,1706.219 2018.952,1704.648 2017.98,1703.789C2017.009,1702.93 2015.723,1702.5 2014.124,1702.5C2013.356,1702.5 2012.54,1702.619 2011.677,1702.857C2010.814,1703.095 2009.976,1703.487 2009.163,1704.033C2008.351,1704.579 2007.645,1705.308 2007.046,1706.221L2007.046,1727.442L2003.023,1727.442ZM2038.972,1727.442L2037.726,1727.442L2027.871,1699.26L2032.14,1699.26L2040.356,1723.951L2048.729,1699.26L2052.828,1699.26L2038.973,1738.869L2034.943,1738.869L2038.972,1727.442ZM2063.183,1727.936C2061.91,1727.936 2060.683,1727.845 2059.501,1727.662C2058.319,1727.479 2057.176,1727.206 2056.071,1726.844L2056.071,1723.506C2057.329,1723.896 2058.533,1724.183 2059.683,1724.366C2060.833,1724.549 2061.992,1724.64 2063.158,1724.64C2065.37,1724.64 2067.006,1724.225 2068.066,1723.393C2069.126,1722.562 2069.656,1721.391 2069.656,1719.882C2069.656,1718.555 2069.329,1717.55 2068.674,1716.866C2068.019,1716.182 2066.986,1715.669 2065.575,1715.326L2062.247,1714.564C2059.831,1713.976 2058.103,1713.052 2057.062,1711.791C2056.022,1710.53 2055.502,1708.909 2055.502,1706.927C2055.502,1704.562 2056.381,1702.622 2058.14,1701.106C2059.899,1699.589 2062.519,1698.831 2065.998,1698.831C2067.127,1698.831 2068.19,1698.892 2069.186,1699.015C2070.181,1699.137 2071.138,1699.317 2072.054,1699.557L2072.054,1702.895C2071.018,1702.613 2070.032,1702.415 2069.093,1702.3C2068.156,1702.185 2067.163,1702.127 2066.115,1702.127C2064.481,1702.127 2063.166,1702.339 2062.171,1702.761C2061.176,1703.183 2060.455,1703.75 2060.007,1704.463C2059.56,1705.176 2059.336,1705.967 2059.336,1706.836C2059.336,1707.994 2059.643,1708.927 2060.256,1709.636C2060.869,1710.345 2061.883,1710.876 2063.296,1711.23L2066.624,1711.991C2069.115,1712.584 2070.882,1713.506 2071.925,1714.758C2072.969,1716.009 2073.491,1717.661 2073.491,1719.711C2073.491,1722.261 2072.6,1724.269 2070.818,1725.736C2069.037,1727.203 2066.492,1727.936 2063.183,1727.936ZM2079.454,1727.442L2079.454,1699.26L2083.488,1699.26L2083.488,1727.442L2079.454,1727.442ZM2081.477,1693.132C2080.567,1693.132 2079.868,1692.9 2079.381,1692.435C2078.893,1691.97 2078.649,1691.338 2078.649,1690.539C2078.649,1689.723 2078.893,1689.08 2079.381,1688.611C2079.868,1688.142 2080.567,1687.907 2081.477,1687.907C2082.392,1687.907 2083.091,1688.142 2083.576,1688.611C2084.062,1689.08 2084.304,1689.723 2084.304,1690.539C2084.304,1691.338 2084.062,1691.97 2083.576,1692.435C2083.091,1692.9 2082.392,1693.132 2081.477,1693.132ZM2101.754,1727.936C2099.263,1727.936 2097.149,1727.443 2095.411,1726.455C2093.673,1725.468 2092.352,1723.906 2091.448,1721.77C2090.544,1719.634 2090.092,1716.833 2090.092,1713.368C2090.092,1709.882 2090.587,1707.073 2091.576,1704.939C2092.565,1702.805 2094.01,1701.254 2095.91,1700.285C2097.81,1699.316 2100.122,1698.831 2102.845,1698.831C2103.711,1698.831 2104.593,1698.882 2105.489,1698.982C2106.385,1699.083 2107.248,1699.243 2108.077,1699.463L2108.077,1702.922C2107.236,1702.7 2106.412,1702.542 2105.604,1702.447C2104.796,1702.352 2104.05,1702.305 2103.365,1702.305C2101.314,1702.305 2099.617,1702.645 2098.274,1703.325C2096.932,1704.005 2095.931,1705.145 2095.273,1706.744C2094.615,1708.342 2094.286,1710.515 2094.286,1713.261C2094.286,1716.071 2094.592,1718.293 2095.203,1719.927C2095.815,1721.56 2096.725,1722.724 2097.934,1723.42C2099.143,1724.115 2100.638,1724.463 2102.42,1724.463C2103.237,1724.463 2104.103,1724.377 2105.019,1724.205C2105.936,1724.033 2106.955,1723.761 2108.077,1723.388L2108.077,1726.847C2107.034,1727.216 2105.983,1727.49 2104.922,1727.669C2103.863,1727.847 2102.806,1727.936 2101.754,1727.936ZM2118.993,1727.936C2117.721,1727.936 2116.493,1727.845 2115.311,1727.662C2114.13,1727.479 2112.986,1727.206 2111.881,1726.844L2111.881,1723.506C2113.14,1723.896 2114.344,1724.183 2115.494,1724.366C2116.644,1724.549 2117.802,1724.64 2118.969,1724.64C2121.181,1724.64 2122.817,1724.225 2123.876,1723.393C2124.937,1722.562 2125.467,1721.391 2125.467,1719.882C2125.467,1718.555 2125.139,1717.55 2124.484,1716.866C2123.83,1716.182 2122.797,1715.669 2121.385,1715.326L2118.057,1714.564C2115.641,1713.976 2113.913,1713.052 2112.873,1711.791C2111.833,1710.53 2111.312,1708.909 2111.312,1706.927C2111.312,1704.562 2112.192,1702.622 2113.951,1701.106C2115.71,1699.589 2118.329,1698.831 2121.809,1698.831C2122.938,1698.831 2124,1698.892 2124.996,1699.015C2125.992,1699.137 2126.948,1699.317 2127.865,1699.557L2127.865,1702.895C2126.829,1702.613 2125.842,1702.415 2124.904,1702.3C2123.966,1702.185 2122.973,1702.127 2121.926,1702.127C2120.291,1702.127 2118.976,1702.339 2117.981,1702.761C2116.986,1703.183 2116.265,1703.75 2115.818,1704.463C2115.37,1705.176 2115.147,1705.967 2115.147,1706.836C2115.147,1707.994 2115.453,1708.927 2116.067,1709.636C2116.68,1710.345 2117.693,1710.876 2119.107,1711.23L2122.435,1711.991C2124.926,1712.584 2126.693,1713.506 2127.736,1714.758C2128.779,1716.009 2129.301,1717.661 2129.301,1719.711C2129.301,1722.261 2128.41,1724.269 2126.629,1725.736C2124.847,1727.203 2122.302,1727.936 2118.993,1727.936ZM1681.691,1671.333L1681.691,1632.897L1685.765,1632.897L1685.765,1667.71L1703.371,1667.71L1703.371,1671.333L1681.691,1671.333ZM1710.293,1658.607C1710.348,1660.907 1710.665,1662.757 1711.244,1664.157C1711.884,1665.703 1712.858,1666.81 1714.166,1667.478C1715.474,1668.145 1717.14,1668.478 1719.162,1668.478C1720.138,1668.478 1721.156,1668.387 1722.217,1668.204C1723.279,1668.022 1724.429,1667.75 1725.668,1667.39L1725.668,1670.758C1724.399,1671.137 1723.201,1671.41 1722.076,1671.577C1720.951,1671.744 1719.829,1671.828 1718.71,1671.828C1715.943,1671.828 1713.63,1671.34 1711.772,1670.365C1709.914,1669.39 1708.517,1667.832 1707.582,1665.692C1706.647,1663.552 1706.18,1660.728 1706.18,1657.219C1706.18,1653.841 1706.621,1651.083 1707.503,1648.945C1708.386,1646.807 1709.627,1645.236 1711.228,1644.231C1712.829,1643.225 1714.71,1642.722 1716.872,1642.722C1719.002,1642.722 1720.822,1643.225 1722.334,1644.229C1723.845,1645.234 1725.002,1646.808 1725.805,1648.954C1726.609,1651.099 1727.011,1653.883 1727.011,1657.306L1727.011,1658.607L1710.293,1658.607ZM1710.288,1655.789L1723.12,1655.789C1723.085,1653.341 1722.834,1651.397 1722.366,1649.956C1721.861,1648.4 1721.139,1647.301 1720.202,1646.658C1719.264,1646.015 1718.146,1645.694 1716.849,1645.694C1715.538,1645.694 1714.391,1646.014 1713.407,1646.655C1712.422,1647.295 1711.656,1648.393 1711.107,1649.948C1710.598,1651.39 1710.326,1653.337 1710.288,1655.789ZM1733.822,1671.333L1733.822,1643.151L1737.856,1643.151L1737.856,1671.333L1733.822,1671.333ZM1735.845,1637.024C1734.935,1637.024 1734.236,1636.791 1733.749,1636.326C1733.261,1635.861 1733.018,1635.229 1733.018,1634.43C1733.018,1633.614 1733.261,1632.971 1733.749,1632.502C1734.236,1632.033 1734.935,1631.798 1735.845,1631.798C1736.76,1631.798 1737.46,1632.033 1737.945,1632.502C1738.43,1632.971 1738.673,1633.614 1738.673,1634.43C1738.673,1635.229 1738.43,1635.861 1737.945,1636.326C1737.46,1636.791 1736.76,1637.024 1735.845,1637.024ZM1754.33,1671.817C1753.009,1671.817 1751.65,1671.713 1750.254,1671.505C1748.858,1671.296 1747.588,1670.999 1746.443,1670.614L1746.443,1629.365L1750.467,1629.365L1750.467,1645.963L1750.707,1645.963C1751.439,1645.043 1752.405,1644.274 1753.607,1643.653C1754.808,1643.033 1756.2,1642.722 1757.783,1642.722C1759.584,1642.722 1761.243,1643.168 1762.761,1644.058C1764.278,1644.948 1765.497,1646.415 1766.417,1648.459C1767.337,1650.502 1767.798,1653.258 1767.798,1656.726C1767.798,1661.857 1766.652,1665.656 1764.362,1668.123C1762.072,1670.589 1758.728,1671.821 1754.33,1671.817ZM1754.599,1668.511C1757.538,1668.511 1759.784,1667.64 1761.337,1665.896C1762.89,1664.152 1763.667,1661.222 1763.667,1657.105C1763.667,1654.209 1763.356,1651.977 1762.734,1650.408C1762.112,1648.84 1761.265,1647.751 1760.193,1647.143C1759.121,1646.534 1757.91,1646.229 1756.559,1646.229C1755.401,1646.229 1754.27,1646.491 1753.168,1647.016C1752.065,1647.541 1751.165,1648.338 1750.467,1649.409L1750.467,1667.957C1751,1668.111 1751.637,1668.243 1752.378,1668.35C1753.119,1668.458 1753.86,1668.511 1754.599,1668.511ZM1774.959,1671.333L1774.959,1643.151L1778.353,1643.151L1778.657,1646.313L1778.924,1646.313C1779.967,1645.161 1781.186,1644.275 1782.582,1643.654C1783.977,1643.033 1785.478,1642.722 1787.085,1642.722C1788.682,1642.722 1790.109,1643.022 1791.363,1643.621C1792.618,1644.219 1793.604,1645.209 1794.322,1646.59C1795.039,1647.971 1795.398,1649.831 1795.398,1652.169L1795.398,1671.333L1791.374,1671.333L1791.374,1652.382C1791.374,1650.108 1790.892,1648.535 1789.929,1647.662C1788.967,1646.789 1787.678,1646.353 1786.064,1646.353C1785.305,1646.353 1784.495,1646.473 1783.632,1646.712C1782.769,1646.952 1781.93,1647.346 1781.114,1647.895C1780.299,1648.444 1779.588,1649.18 1778.983,1650.102L1778.983,1671.333L1774.959,1671.333ZM1803.708,1671.333L1803.708,1643.151L1807.742,1643.151L1807.742,1671.333L1803.708,1671.333ZM1805.732,1637.024C1804.821,1637.024 1804.123,1636.791 1803.635,1636.326C1803.148,1635.861 1802.904,1635.229 1802.904,1634.43C1802.904,1633.614 1803.148,1632.971 1803.635,1632.502C1804.123,1632.033 1804.821,1631.798 1805.732,1631.798C1806.646,1631.798 1807.346,1632.033 1807.831,1632.502C1808.316,1632.971 1808.559,1633.614 1808.559,1634.43C1808.559,1635.229 1808.316,1635.861 1807.831,1636.326C1807.346,1636.791 1806.646,1637.024 1805.732,1637.024ZM1819.061,1667.992L1833.46,1667.992L1833.46,1671.333L1814.191,1671.333L1814.191,1668.856L1828.31,1646.493L1814.47,1646.493L1814.47,1643.151L1833.181,1643.151L1833.181,1645.628L1819.061,1667.992ZM1853.33,1671.333L1853.33,1632.897L1857.403,1632.897L1857.403,1671.333L1853.33,1671.333ZM1866.427,1671.333L1866.427,1643.151L1869.821,1643.151L1870.124,1646.313L1870.392,1646.313C1871.435,1645.161 1872.654,1644.275 1874.05,1643.654C1875.445,1643.033 1876.946,1642.722 1878.553,1642.722C1880.15,1642.722 1881.577,1643.022 1882.831,1643.621C1884.086,1644.219 1885.072,1645.209 1885.789,1646.59C1886.507,1647.971 1886.866,1649.831 1886.866,1652.169L1886.866,1671.333L1882.842,1671.333L1882.842,1652.382C1882.842,1650.108 1882.36,1648.535 1881.397,1647.662C1880.434,1646.789 1879.146,1646.353 1877.532,1646.353C1876.773,1646.353 1875.963,1646.473 1875.1,1646.712C1874.237,1646.952 1873.398,1647.346 1872.582,1647.895C1871.767,1648.444 1871.056,1649.18 1870.451,1650.102L1870.451,1671.333L1866.427,1671.333ZM1901.214,1671.828C1899.941,1671.828 1898.714,1671.736 1897.532,1671.553C1896.351,1671.37 1895.207,1671.097 1894.102,1670.735L1894.102,1667.397C1895.36,1667.787 1896.564,1668.074 1897.714,1668.257C1898.865,1668.44 1900.023,1668.531 1901.19,1668.531C1903.401,1668.531 1905.037,1668.116 1906.097,1667.284C1907.157,1666.453 1907.687,1665.282 1907.687,1663.773C1907.687,1662.446 1907.36,1661.441 1906.705,1660.757C1906.05,1660.073 1905.017,1659.56 1903.606,1659.217L1900.278,1658.456C1897.862,1657.867 1896.134,1656.943 1895.093,1655.682C1894.053,1654.421 1893.533,1652.8 1893.533,1650.818C1893.533,1648.453 1894.413,1646.513 1896.172,1644.997C1897.931,1643.481 1900.55,1642.722 1904.029,1642.722C1905.158,1642.722 1906.221,1642.784 1907.217,1642.906C1908.213,1643.028 1909.169,1643.209 1910.085,1643.448L1910.085,1646.786C1909.05,1646.505 1908.063,1646.306 1907.125,1646.191C1906.187,1646.076 1905.194,1646.019 1904.147,1646.019C1902.512,1646.019 1901.197,1646.23 1900.202,1646.652C1899.207,1647.074 1898.486,1647.641 1898.039,1648.354C1897.591,1649.067 1897.367,1649.858 1897.367,1650.727C1897.367,1651.885 1897.674,1652.818 1898.287,1653.527C1898.901,1654.236 1899.914,1654.768 1901.328,1655.121L1904.655,1655.882C1907.146,1656.475 1908.913,1657.397 1909.957,1658.649C1911,1659.9 1911.522,1661.552 1911.522,1663.603C1911.522,1666.152 1910.631,1668.161 1908.849,1669.627C1907.068,1671.094 1904.523,1671.828 1901.214,1671.828ZM1919.348,1646.493L1914.296,1646.493L1914.296,1643.151L1919.348,1643.151L1920.008,1632.897L1923.372,1632.897L1923.372,1643.151L1931.456,1643.151L1931.456,1646.493L1923.372,1646.493L1923.372,1662.219C1923.372,1664.482 1923.812,1666.06 1924.693,1666.952C1925.573,1667.844 1926.913,1668.291 1928.713,1668.291C1929.196,1668.291 1929.695,1668.256 1930.208,1668.186C1930.722,1668.117 1931.273,1668.019 1931.861,1667.893L1931.861,1671.352C1931.249,1671.493 1930.599,1671.605 1929.911,1671.69C1929.223,1671.775 1928.543,1671.817 1927.872,1671.817C1925.194,1671.817 1923.104,1671.114 1921.602,1669.707C1920.099,1668.299 1919.348,1666.003 1919.348,1662.818L1919.348,1646.493ZM1937.274,1671.333L1937.274,1643.151L1941.308,1643.151L1941.308,1671.333L1937.274,1671.333ZM1939.298,1637.024C1938.387,1637.024 1937.689,1636.791 1937.201,1636.326C1936.714,1635.861 1936.47,1635.229 1936.47,1634.43C1936.47,1633.614 1936.714,1632.971 1937.201,1632.502C1937.689,1632.033 1938.387,1631.798 1939.298,1631.798C1940.212,1631.798 1940.912,1632.033 1941.397,1632.502C1941.882,1632.971 1942.125,1633.614 1942.125,1634.43C1942.125,1635.229 1941.882,1635.861 1941.397,1636.326C1940.912,1636.791 1940.212,1637.024 1939.298,1637.024ZM1951.474,1646.493L1946.421,1646.493L1946.421,1643.151L1951.474,1643.151L1952.133,1632.897L1955.497,1632.897L1955.497,1643.151L1963.582,1643.151L1963.582,1646.493L1955.497,1646.493L1955.497,1662.219C1955.497,1664.482 1955.938,1666.06 1956.818,1666.952C1957.699,1667.844 1959.039,1668.291 1960.838,1668.291C1961.321,1668.291 1961.82,1668.256 1962.334,1668.186C1962.848,1668.117 1963.399,1668.019 1963.987,1667.893L1963.987,1671.352C1963.374,1671.493 1962.724,1671.605 1962.036,1671.69C1961.349,1671.775 1960.669,1671.817 1959.997,1671.817C1957.319,1671.817 1955.229,1671.114 1953.727,1669.707C1952.225,1668.299 1951.474,1666.003 1951.474,1662.818L1951.474,1646.493ZM1977.313,1671.811C1975.736,1671.811 1974.326,1671.512 1973.081,1670.913C1971.836,1670.314 1970.854,1669.323 1970.135,1667.941C1969.417,1666.559 1969.057,1664.69 1969.057,1662.337L1969.057,1643.151L1973.081,1643.151L1973.081,1662.16C1973.081,1664.424 1973.565,1665.994 1974.534,1666.868C1975.503,1667.743 1976.75,1668.18 1978.274,1668.18C1979.01,1668.18 1979.805,1668.058 1980.657,1667.814C1981.51,1667.57 1982.337,1667.174 1983.137,1666.627C1983.938,1666.079 1984.633,1665.354 1985.222,1664.45L1985.222,1643.151L1989.246,1643.151L1989.246,1671.333L1985.852,1671.333L1985.548,1668.259L1985.287,1668.259C1984.219,1669.446 1982.996,1670.335 1981.618,1670.925C1980.239,1671.516 1978.804,1671.811 1977.313,1671.811ZM1999.545,1646.493L1994.492,1646.493L1994.492,1643.151L1999.545,1643.151L2000.204,1632.897L2003.569,1632.897L2003.569,1643.151L2011.653,1643.151L2011.653,1646.493L2003.569,1646.493L2003.569,1662.219C2003.569,1664.482 2004.009,1666.06 2004.89,1666.952C2005.77,1667.844 2007.11,1668.291 2008.909,1668.291C2009.393,1668.291 2009.891,1668.256 2010.405,1668.186C2010.919,1668.117 2011.47,1668.019 2012.058,1667.893L2012.058,1671.352C2011.445,1671.493 2010.795,1671.605 2010.108,1671.69C2009.42,1671.775 2008.74,1671.817 2008.069,1671.817C2005.391,1671.817 2003.3,1671.114 2001.798,1669.707C2000.296,1668.299 1999.545,1666.003 1999.545,1662.818L1999.545,1646.493ZM2019.809,1658.607C2019.864,1660.907 2020.181,1662.757 2020.76,1664.157C2021.4,1665.703 2022.374,1666.81 2023.682,1667.478C2024.99,1668.145 2026.656,1668.478 2028.678,1668.478C2029.653,1668.478 2030.672,1668.387 2031.733,1668.204C2032.795,1668.022 2033.945,1667.75 2035.184,1667.39L2035.184,1670.758C2033.915,1671.137 2032.717,1671.41 2031.592,1671.577C2030.467,1671.744 2029.345,1671.828 2028.226,1671.828C2025.459,1671.828 2023.146,1671.34 2021.288,1670.365C2019.43,1669.39 2018.033,1667.832 2017.098,1665.692C2016.163,1663.552 2015.696,1660.728 2015.696,1657.219C2015.696,1653.841 2016.137,1651.083 2017.019,1648.945C2017.901,1646.807 2019.143,1645.236 2020.744,1644.231C2022.344,1643.225 2024.226,1642.722 2026.388,1642.722C2028.518,1642.722 2030.338,1643.225 2031.849,1644.229C2033.36,1645.234 2034.518,1646.808 2035.321,1648.954C2036.125,1651.099 2036.527,1653.883 2036.527,1657.306L2036.527,1658.607L2019.809,1658.607ZM2019.804,1655.789L2032.636,1655.789C2032.601,1653.341 2032.35,1651.397 2031.882,1649.956C2031.376,1648.4 2030.655,1647.301 2029.717,1646.658C2028.78,1646.015 2027.662,1645.694 2026.365,1645.694C2025.054,1645.694 2023.907,1646.014 2022.922,1646.655C2021.938,1647.295 2021.172,1648.393 2020.623,1649.948C2020.114,1651.39 2019.841,1653.337 2019.804,1655.789ZM2066.291,1671.828C2064.022,1671.828 2062.048,1671.332 2060.369,1670.341C2058.691,1669.35 2057.392,1667.786 2056.472,1665.649C2055.553,1663.511 2055.093,1660.723 2055.093,1657.282C2055.093,1653.838 2055.548,1651.046 2056.459,1648.907C2057.37,1646.767 2058.662,1645.202 2060.337,1644.21C2062.012,1643.218 2063.997,1642.722 2066.291,1642.722C2068.573,1642.722 2070.553,1643.219 2072.231,1644.213C2073.909,1645.206 2075.205,1646.771 2076.119,1648.908C2077.033,1651.044 2077.49,1653.829 2077.49,1657.263C2077.49,1660.697 2077.032,1663.485 2076.116,1665.627C2075.201,1667.769 2073.905,1669.338 2072.228,1670.334C2070.553,1671.33 2068.574,1671.828 2066.291,1671.828ZM2066.291,1668.548C2067.741,1668.548 2068.994,1668.214 2070.051,1667.545C2071.109,1666.876 2071.924,1665.727 2072.498,1664.097C2073.072,1662.468 2073.359,1660.218 2073.359,1657.35C2073.359,1654.423 2073.071,1652.136 2072.496,1650.49C2071.92,1648.844 2071.103,1647.684 2070.044,1647.011C2068.985,1646.338 2067.734,1646.002 2066.291,1646.002C2064.849,1646.002 2063.598,1646.334 2062.539,1646.999C2061.48,1647.664 2060.663,1648.81 2060.087,1650.439C2059.511,1652.068 2059.224,1654.32 2059.224,1657.195C2059.224,1660.115 2059.511,1662.4 2060.084,1664.049C2060.659,1665.698 2061.474,1666.86 2062.531,1667.536C2063.589,1668.211 2064.842,1668.548 2066.291,1668.548ZM2085.793,1646.493L2080.74,1646.493L2080.74,1643.151L2085.793,1643.151L2085.793,1638.265C2085.793,1636.216 2086.15,1634.493 2086.865,1633.096C2087.58,1631.699 2088.643,1630.641 2090.054,1629.923C2091.466,1629.205 2093.222,1628.846 2095.322,1628.846C2095.884,1628.846 2096.474,1628.868 2097.092,1628.914C2097.71,1628.959 2098.306,1629.034 2098.879,1629.138L2098.879,1632.556C2098.338,1632.459 2097.813,1632.387 2097.305,1632.338C2096.797,1632.29 2096.258,1632.266 2095.69,1632.266C2093.708,1632.266 2092.228,1632.715 2091.251,1633.614C2090.275,1634.512 2089.787,1636.008 2089.787,1638.102L2089.787,1643.151L2097.871,1643.151L2097.871,1646.493L2089.787,1646.493L2089.787,1671.333L2085.793,1671.333L2085.793,1646.493Z" style="fill:rgb(38,71,150);"/>
    </g>
</svg>
